<?xml version="1.0" encoding="utf-8"?>
<!-- Svg Vector Icons : http://www.onlinewebfonts.com/icon -->
<!DOCTYPE svg PUBLIC "-//W3C//DTD SVG 1.1//EN" "http://www.w3.org/Graphics/SVG/1.1/DTD/svg11.dtd">
<svg version="1.1" xmlns="http://www.w3.org/2000/svg" xmlns:xlink="http://www.w3.org/1999/xlink" x="0px" y="0px" viewBox="0 0 256 256" enable-background="new 0 0 256 256" xml:space="preserve">
<metadata> Svg Vector Icons : http://www.onlinewebfonts.com/icon </metadata>
<g><g><path fill="#000000" d="M97.2,104.4H65.6V67.6c0-8,1.6-15.5,4.8-22.4c3.2-6.9,7.6-13,13.1-18.3c5.6-5.3,12.2-9.4,19.8-12.4c7.6-3,15.9-4.5,24.9-4.5c8,0,15.7,1.5,23.2,4.5c7.4,3,14,7.2,19.8,12.4c5.8,5.2,10.4,11.4,13.8,18.3c3.4,7,5.2,14.4,5.2,22.4v36.8h-30.3V74.6c0-10.5-2.9-18.7-8.8-24.4c-5.9-5.8-13.8-8.6-23.8-8.6c-9,0-16.3,2.9-21.8,8.6c-5.5,5.8-8.3,13.9-8.3,24.4L97.2,104.4L97.2,104.4z M205.2,119.5c4.5,0,8.4,1.6,11.7,4.9c3.3,3.3,4.9,7.2,4.9,11.7v77.7c0,4.5-0.8,8.7-2.4,12.6c-1.6,3.9-3.8,7.3-6.5,10.3c-2.7,2.9-6,5.2-9.8,6.9c-3.8,1.7-7.9,2.5-12.4,2.5H64.1c-4.5,0-8.6-0.8-12.3-2.5c-3.7-1.7-6.8-3.9-9.4-6.6c-2.6-2.7-4.6-6-6-9.7c-1.4-3.7-2.1-7.6-2.1-11.8V136c0-4.5,1.6-8.4,4.8-11.7c3.2-3.3,7-4.9,11.5-4.9h15h31.5h62.6h30.3H205.2L205.2,119.5z"/></g></g>
</svg>